# Blender v3.5.0 OBJ File: 'virPlayerWhite.blend'
# www.blender.org
mtllib float_R_arm.mtl
o RightArm_Cube.002
v 2.337204 -2.037006 0.770000
v 0.012239 0.473627 0.404213
v 2.337204 -2.037006 -0.770000
v 0.012239 0.473627 -0.404213
v 1.031210 -2.853082 0.770000
v 0.019232 -0.498667 0.404213
v 1.031210 -2.853082 -0.770000
v 0.019232 -0.498667 -0.404213
vt 0.917067 0.745603
vt 0.764192 0.898478
vt 0.764192 0.745603
vt 0.611317 0.674282
vt 0.496965 0.420293
vt 0.547950 0.338678
vt 0.152875 0.343967
vt 0.036312 0.094610
vt 0.116564 0.094610
vt 0.036312 0.000000
vt 0.458625 0.339681
vt 0.342061 0.000000
vt 0.422313 0.000000
vt 0.420102 0.421296
vt 0.305750 0.675285
vt 0.369117 0.339681
vt 0.917067 0.898478
vt 0.458625 0.674282
vt 0.000000 0.343967
vt 0.116564 0.000000
vt 0.305750 0.339681
vt 0.458442 0.675285
vn 0.5299 -0.8480 0.0000
vn -0.1566 -0.0011 -0.9877
vn -0.9187 -0.3949 0.0000
vn -1.0000 -0.0072 0.0000
vn 0.7337 0.6795 0.0000
vn -0.1566 -0.0011 0.9877
vn -0.0757 0.1212 -0.9897
vn -0.0757 0.1212 0.9897
usemtl Material.002
s off
f 5/1/1 3/2/1 1/3/1
f 3/4/2 8/5/2 4/6/2
f 7/7/3 6/8/3 8/9/3
f 2/10/4 8/9/4 6/8/4
f 1/11/5 4/12/5 2/13/5
f 6/14/6 1/15/6 2/16/6
f 5/1/1 7/17/1 3/2/1
f 3/4/7 7/18/7 8/5/7
f 7/7/3 5/19/3 6/8/3
f 2/10/4 4/20/4 8/9/4
f 1/11/5 3/21/5 4/12/5
f 6/14/8 5/22/8 1/15/8
