# Blender v3.5.0 OBJ File: 'tuna.blend'
# www.blender.org
mtllib Enemy.mtl
o 立方体.005_立方体.006
v 0.000000 -1.068485 -6.800754
v 0.167911 -0.735124 -7.084239
v 0.000000 -2.700191 -3.526886
v 0.167911 -0.735124 -2.643305
v 0.000000 -2.394711 -5.214247
v -0.167911 -0.735124 -7.084239
v 0.167911 -0.735124 -4.863772
v -0.167911 -0.735124 -2.643305
v -0.167911 -0.735124 -4.863772
v 0.167911 -0.735124 -3.753539
v -0.167911 -0.735124 -3.753539
v 0.000000 -4.204816 -4.501590
v 0.000000 -1.591369 -5.951660
v -0.167911 -0.735124 -5.974005
v 0.167911 -0.735124 -5.974005
v 0.167911 -0.735124 -3.198422
v -0.167911 -0.735124 -3.198422
v 0.000000 -3.720461 -4.093799
v -0.167911 -0.735124 -4.308655
v -0.143961 -4.666845 -4.847736
v 0.167911 -0.735124 -4.308655
v 0.167911 -0.735124 -5.418889
v 0.000000 -1.953086 -5.581737
v -0.167911 -0.735124 -5.418889
v 0.000000 -1.402406 -6.325595
v -0.167911 -0.735124 -6.529122
v 0.167911 -0.735124 -6.529122
v 0.325969 -0.620575 -8.839003
v 0.384449 0.939884 -8.839003
v 0.812081 -1.631106 8.535437
v 0.881567 0.989466 9.331976
v -0.325969 -0.620575 -8.839003
v -0.384449 0.939884 -8.839003
v -0.812081 -1.631106 8.535437
v -0.881567 0.989466 9.331976
v 1.799597 -1.767914 1.439411
v 1.874552 2.488604 1.735243
v -1.799597 -1.767914 1.439411
v -1.874552 2.488604 1.735243
v 0.443833 -0.086363 -8.839003
v 1.240673 -0.112566 9.363272
v -1.240673 -0.112566 9.363272
v -0.443833 -0.086363 -8.839003
v -2.480833 -0.112566 1.407035
v 2.480833 -0.112566 1.407035
v -0.005075 -1.281106 10.241093
v -0.005075 1.638207 9.794945
v -0.004331 -0.630664 -8.839003
v -0.004331 1.108859 -8.839003
v -0.005075 3.196585 1.735243
v -0.005075 -2.583124 1.439411
v -0.004331 -0.086363 -8.839003
v -0.005075 0.435695 11.491138
v 1.447444 2.033509 5.304922
v -1.799597 -1.691455 5.321959
v 1.799597 -1.691455 5.321959
v -1.447444 2.033509 5.304922
v -2.166531 -0.112566 4.972559
v 2.166531 -0.112566 4.972559
v 0.091712 -2.547543 5.321959
v -0.005075 2.741491 5.304922
v 1.799597 -1.606282 -2.158491
v -1.874552 2.218437 -2.158491
v 1.874552 2.218437 -2.158491
v -1.799597 -1.606282 -2.158491
v 2.213544 -0.112566 -1.920881
v -2.213544 -0.112566 -1.920881
v -0.005075 2.926418 -2.158491
v -0.005075 -2.349816 -2.158491
v 1.476137 -1.352417 -4.762265
v -1.551091 1.710610 -4.762265
v -1.862341 -0.112566 -4.643459
v -0.005075 2.467929 -4.762265
v -0.005075 -1.970485 -4.762265
v 1.551091 1.710610 -4.762265
v -1.476137 -1.352417 -4.762265
v 1.862341 -0.112566 -4.643459
v 1.133897 -0.871836 9.246197
v -1.133897 -0.871836 9.246197
v -0.412024 -0.471000 -8.839003
v -2.140215 -0.940240 1.423223
v 2.140215 -0.940240 1.423223
v 0.412024 -0.471000 -8.839003
v -0.005075 -0.293454 11.438217
v -0.004331 -0.587016 -8.839003
v 1.983064 -0.883847 4.972559
v -1.983064 -0.883847 4.972559
v -2.006571 -0.859424 -2.039685
v 2.006571 -0.859424 -2.039685
v 1.669239 -0.732492 -4.702862
v -1.669239 -0.732492 -4.702862
v 0.666100 1.509698 0.854934
v -0.000703 2.941718 -1.332429
v 0.666100 1.509698 4.754735
v -0.000703 5.442255 1.509205
v -0.667505 1.509698 0.854934
v -0.667505 1.509698 4.754735
v 0.666100 1.509698 2.804834
v -0.000703 3.606582 0.630117
v -0.667505 1.509698 2.804834
v -0.000703 4.299284 1.289983
v -0.667505 1.509698 3.779785
v 0.666100 1.509698 3.779785
v 0.666100 1.509698 1.829885
v -0.000703 3.308031 -0.246809
v -0.667505 1.509698 1.829885
v 0.380267 2.178930 -4.008239
v 0.000000 2.282446 -3.698682
v 0.380267 2.178930 -1.135003
v 0.000000 5.360295 -2.609869
v -0.380267 2.178930 -4.008239
v -0.380267 2.178930 -1.135003
v 0.380267 2.178930 -2.571621
v 0.000000 2.840718 -2.970531
v -0.380267 2.178930 -2.571621
v 0.000000 4.995756 -2.760732
v -0.380267 2.178930 -1.853312
v 0.380267 2.178930 -1.853312
v 0.380267 2.178930 -3.289930
v 0.000000 2.526832 -3.322515
v -0.380267 2.178930 -3.289930
v 0.000000 -4.699833 0.953965
v 0.229089 -1.675354 1.167345
v 0.061613 -2.932247 3.039370
v 0.229089 -1.675354 3.935498
v -0.229089 -1.675354 1.142328
v -0.229089 -1.675354 3.992493
v 0.000000 -3.986705 1.863462
v 0.229089 -1.675354 2.526240
v -0.229089 -1.675354 2.526240
v 0.229089 -1.675354 3.259367
v 0.000000 -3.543204 2.403680
v -0.229089 -1.675354 3.259367
v 0.000998 -4.592200 1.201444
v -0.229089 -1.675354 1.793113
v 0.229089 -1.675354 1.793113
vt 0.793833 0.862701
vt 0.842898 0.774914
vt 0.881440 0.735031
vt 0.894222 0.496706
vt 0.894222 0.573971
vt 0.877324 0.572101
vt 0.235821 0.942419
vt 0.225458 0.925234
vt 0.242902 0.908341
vt 0.214342 0.744013
vt 0.214342 0.763467
vt 0.199070 0.755997
vt 0.974376 0.060667
vt 0.957375 0.080889
vt 0.957375 0.060667
vt 0.974376 0.141556
vt 0.957375 0.161778
vt 0.957375 0.141556
vt 0.317186 0.942419
vt 0.283724 0.858141
vt 0.297759 0.743468
vt 0.898384 0.838423
vt 0.850273 0.885830
vt 0.894296 0.812647
vt 0.324912 0.791071
vt 0.337527 0.942419
vt 0.310018 0.766568
vt 0.974376 0.020223
vt 0.957375 0.040444
vt 0.957375 0.020222
vt 0.831459 0.878120
vt 0.904436 0.718023
vt 0.925525 0.700888
vt 0.913162 0.874530
vt 0.887899 0.901249
vt 0.904069 0.860492
vt 0.974376 0.101112
vt 0.957375 0.121333
vt 0.957375 0.101111
vt 0.276503 0.942419
vt 0.256623 0.898782
vt 0.270214 0.880483
vt 0.974376 0.000001
vt 0.957375 0.000000
vt 0.345585 0.842687
vt 0.357868 0.942419
vt 0.812646 0.870411
vt 0.974376 0.040445
vt 0.296845 0.942419
vt 0.974376 0.080890
vt 0.869086 0.893540
vt 0.922939 0.896759
vt 0.906712 0.908959
vt 0.974376 0.121334
vt 0.256162 0.942419
vt 0.346018 0.232027
vt 0.295348 0.076426
vt 0.349700 0.074053
vt 0.108062 0.000000
vt 0.137746 0.076864
vt 0.082678 0.074662
vt 0.083865 0.586277
vt 0.134297 0.744013
vt 0.082492 0.743755
vt 0.947764 0.930042
vt 0.965829 0.877592
vt 0.970441 0.929332
vt 0.711289 0.152238
vt 0.695172 0.000000
vt 0.711454 0.000022
vt 0.525816 0.157778
vt 0.506117 0.000000
vt 0.525797 0.001025
vt 0.452300 0.521878
vt 0.525811 0.398893
vt 0.525823 0.526172
vt 0.620479 0.521377
vt 0.711235 0.380868
vt 0.716143 0.523140
vt 0.084441 0.233113
vt 0.215479 0.352765
vt 0.085040 0.362938
vt 0.228827 0.494369
vt 0.344610 0.361653
vt 0.345325 0.484359
vt 0.387638 0.362009
vt 0.383778 0.489259
vt 0.042520 0.363160
vt 0.045073 0.233520
vt 0.969434 0.948810
vt 0.948548 0.955329
vt 0.052135 0.588901
vt 0.062973 0.743801
vt 0.071174 0.001867
vt 0.044063 0.079159
vt 0.388418 0.078581
vt 0.385628 0.232501
vt 0.363498 0.001854
vt 0.927737 0.950116
vt 0.802678 0.379198
vt 0.802690 0.521386
vt 0.598856 0.521879
vt 0.620467 0.394600
vt 0.545043 0.000000
vt 0.604097 0.153186
vt 0.728177 0.000002
vt 0.786337 0.150972
vt 0.926923 0.878810
vt 0.925525 0.930739
vt 0.895504 0.607615
vt 0.940391 0.666222
vt 0.877324 0.658770
vt 0.570231 0.662248
vt 0.752706 0.639075
vt 0.670482 0.639071
vt 0.711374 0.700888
vt 0.480971 0.662248
vt 0.525847 0.683048
vt 0.215479 0.351790
vt 0.711254 0.248479
vt 0.802690 0.246956
vt 0.525811 0.255411
vt 0.620467 0.251118
vt 0.084533 0.485587
vt 0.046355 0.490412
vt 0.346389 0.585152
vt 0.378387 0.587848
vt 0.255442 0.590667
vt 0.430666 0.394599
vt 0.620467 0.379189
vt 0.201813 0.495417
vt 0.298272 0.743468
vt 0.349879 0.743168
vt 0.369417 0.743221
vt 0.430666 0.251116
vt 0.636876 0.150965
vt 0.175507 0.591630
vt 0.008178 0.495237
vt 0.020406 0.591525
vt 0.410385 0.590545
vt 0.377281 0.743468
vt 0.422231 0.494159
vt 0.000000 0.363382
vt 0.005040 0.105976
vt 0.003867 0.221121
vt 0.430666 0.362365
vt 0.427100 0.220174
vt 0.932326 0.957534
vt 0.948616 0.957534
vt 0.413280 0.045586
vt 0.427868 0.105512
vt 0.021210 0.045636
vt 0.055242 0.744013
vt 0.965314 0.956501
vt 0.737972 0.745821
vt 0.775020 0.931772
vt 0.744682 0.912939
vt 0.970746 0.337774
vt 0.970746 0.570881
vt 0.903943 0.347551
vt 0.474238 0.856281
vt 0.463461 0.757685
vt 0.493926 0.739025
vt 0.131555 0.827146
vt 0.165454 0.744013
vt 0.199070 0.827152
vt 0.131555 0.862891
vt 0.199070 0.862896
vt 0.131555 0.934380
vt 0.199070 0.898641
vt 0.199070 0.934385
vt 0.548367 0.869684
vt 0.524391 0.720366
vt 0.554856 0.701707
vt 0.684006 0.875273
vt 0.699119 0.762872
vt 0.714344 0.894106
vt 0.585322 0.683048
vt 0.131555 0.970124
vt 0.199070 0.970129
vt 0.653668 0.856440
vt 0.663936 0.758776
vt 0.131555 0.898635
vt 0.509503 0.852393
vt 0.988768 0.716455
vt 1.000000 0.869674
vt 0.975175 0.860964
vt 0.416465 0.743468
vt 0.416465 0.913489
vt 0.378210 0.747827
vt 0.586245 0.899680
vt 0.600507 0.880426
vt 0.612412 0.899679
vt 0.612412 0.861176
vt 0.907015 0.205597
vt 0.945517 0.179264
vt 0.945517 0.205600
vt 0.907015 0.258267
vt 0.945517 0.231935
vt 0.945517 0.258270
vt 0.852446 0.505302
vt 0.823441 0.549980
vt 0.827568 0.513898
vt 0.928589 0.827462
vt 0.950350 0.852254
vt 0.925525 0.843544
vt 0.877324 0.496706
vt 0.866110 0.650585
vt 0.907015 0.284602
vt 0.945517 0.284605
vt 0.945937 0.816751
vt 0.586245 0.861178
vt 0.907015 0.231932
vt 0.806094 0.539174
vt 0.802690 0.522494
vt 0.827422 0.495441
vt 0.832433 0.431026
vt 0.854152 0.398801
vt 0.929627 0.284605
vt 0.929627 0.329454
vt 0.907015 0.324210
vt 0.898225 0.331912
vt 0.907014 0.184161
vt 0.907014 0.337774
vt 0.957375 0.000000
vt 0.957375 0.152850
vt 0.934245 0.151047
vt 0.940391 0.665011
vt 0.963587 0.687808
vt 0.940391 0.688718
vt 0.963587 0.611598
vt 0.940391 0.638304
vt 0.940391 0.611597
vt 0.856810 0.276838
vt 0.856359 0.181782
vt 0.875487 0.300176
vt 0.881054 0.492699
vt 0.872671 0.375430
vt 0.895190 0.343667
vt 0.835209 0.244999
vt 0.829525 0.180522
vt 0.963587 0.586967
vt 0.940391 0.584890
vt 0.854238 0.494070
vt 0.903943 0.491528
vt 0.903943 0.337774
vt 0.963587 0.638305
vt 0.883194 0.183042
vt 0.775020 0.854992
vt 0.215479 0.942419
vt 0.974376 0.161779
vt 0.378210 0.942419
vt 0.925525 0.916668
vt 0.240276 0.222305
vt 0.168897 0.062273
vt 0.945892 0.869673
vt 0.447047 0.153184
vt 0.191642 0.223041
vt 0.326683 0.000000
vt 0.940391 0.584890
vt 0.620479 0.246948
vt 0.775020 0.700888
vt 0.430666 0.861236
vt 0.585322 0.914857
vt 0.620467 0.753563
vt 1.000000 0.700888
vt 0.585322 0.880423
vt 0.907015 0.179261
vt 0.877324 0.666222
vt 0.802690 0.496706
vt 0.963587 0.665012
vt 0.802690 0.179261
vn 0.9698 -0.1185 0.2133
vn 0.0000 -0.4101 0.9120
vn -0.9312 -0.2982 -0.2096
vn 0.0000 -0.6478 -0.7618
vn 0.0000 1.0000 0.0000
vn -0.9737 0.0251 -0.2266
vn 0.9921 -0.0801 -0.0962
vn -0.9949 -0.0647 0.0769
vn 0.9346 -0.0255 -0.3547
vn 0.9761 -0.1940 -0.0980
vn -0.9858 -0.1202 -0.1175
vn -0.9698 -0.1185 0.2133
vn 0.9949 -0.0647 0.0769
vn 0.9960 -0.0717 -0.0533
vn -0.8855 -0.0684 0.4596
vn -0.9921 -0.0801 -0.0962
vn 0.9858 -0.1202 -0.1175
vn 0.9312 -0.2982 -0.2096
vn -0.9761 -0.1940 -0.0980
vn 0.9307 0.3088 0.1962
vn -0.8579 0.2916 0.4230
vn -0.9460 0.0547 -0.3195
vn 0.0000 0.0000 -1.0000
vn -0.0298 -0.9496 -0.3121
vn 0.3812 0.8771 -0.2923
vn 0.4353 0.8931 0.1139
vn -0.4123 -0.9109 0.0186
vn -0.9726 0.2159 0.0857
vn 0.9876 0.1355 -0.0793
vn 0.9645 -0.2604 -0.0433
vn -0.9718 -0.2312 0.0467
vn -0.9524 -0.0788 -0.2945
vn -0.8501 -0.1950 0.4892
vn 0.9551 -0.2272 0.1904
vn 0.8483 -0.1952 0.4923
vn 0.4480 -0.8938 0.0176
vn -0.3496 0.9232 0.1595
vn -0.4219 0.8612 -0.2835
vn 0.3714 -0.8900 -0.2645
vn 0.8564 0.2912 0.4264
vn -0.4227 0.8611 0.2826
vn 0.4429 -0.8835 0.1527
vn 0.9718 -0.2312 0.0467
vn -0.9551 -0.2272 0.1904
vn -0.9307 0.3088 0.1962
vn -0.1022 -0.9638 0.2461
vn 0.6410 0.7454 0.1832
vn 0.9726 0.2159 0.0857
vn 0.3806 -0.9238 -0.0415
vn -0.3534 0.9332 -0.0648
vn -0.9645 -0.2604 -0.0433
vn 0.9497 -0.2830 -0.1338
vn 0.9792 0.1589 -0.1263
vn 0.3517 0.9339 -0.0648
vn -0.4129 -0.9089 -0.0589
vn -0.9876 0.1355 -0.0793
vn 0.9460 0.0547 -0.3195
vn 0.9524 -0.0788 -0.2945
vn 0.3774 -0.9160 -0.1362
vn -0.4287 0.8752 -0.2240
vn -0.9497 -0.2830 -0.1338
vn 0.3478 0.9234 -0.1626
vn -0.3839 -0.9137 -0.1331
vn -0.9792 0.1589 -0.1263
vn -0.9485 -0.2815 -0.1453
vn 0.8221 -0.4730 -0.3169
vn 0.9485 -0.2815 -0.1453
vn -0.9641 -0.2653 -0.0119
vn -0.9516 -0.0889 0.2941
vn 0.9755 -0.2197 0.0043
vn 0.6135 -0.6624 0.4299
vn 0.9516 -0.0889 0.2941
vn -0.6164 -0.6613 0.4274
vn -0.8221 -0.4730 -0.3169
vn -0.9755 -0.2197 0.0043
vn 0.9641 -0.2653 -0.0119
vn 0.9726 0.2325 0.0000
vn 0.0000 0.6365 0.7713
vn -0.9376 0.3477 0.0000
vn 0.0000 -0.8367 -0.5477
vn 0.0000 -1.0000 0.0000
vn -0.9726 0.2325 0.0000
vn 0.9530 0.3030 0.0000
vn 0.9376 0.3477 0.0000
vn -0.9530 0.3030 0.0000
vn 0.9910 0.1338 0.0000
vn 0.0000 0.4206 0.9072
vn -0.2627 0.9649 0.0000
vn 0.0000 0.9484 -0.3171
vn -0.8671 0.4982 0.0000
vn 0.6750 0.7378 0.0000
vn -0.9910 0.1338 0.0000
vn 0.8671 0.4982 0.0000
vn 0.2627 0.9649 0.0000
vn -0.6750 0.7378 0.0000
vn 0.9897 -0.1384 0.0371
vn 0.1000 -0.5864 0.8038
vn -0.9962 -0.0778 0.0379
vn 0.0544 0.0662 -0.9963
vn -0.9862 -0.1278 0.1050
vn 0.9914 -0.0956 0.0889
vn -0.8993 -0.2684 0.3451
vn 0.9862 -0.1278 0.1050
vn 0.9965 -0.0776 0.0297
vn -0.9917 -0.0957 0.0860
vn 0.9964 -0.0851 0.0000
vn -0.8931 -0.4499 0.0000
vn -0.9949 -0.1007 0.0000
vn 0.9906 -0.1366 0.0000
vn -0.9984 -0.0562 0.0000
vn 0.9988 -0.0483 0.0000
vn 0.9698 -0.2440 0.0000
vn -0.9813 -0.1924 0.0000
vn -0.9964 -0.0851 0.0000
vn 0.9984 -0.0562 0.0000
vn 0.9949 -0.1007 0.0000
vn -0.9988 -0.0483 0.0000
vn -0.9906 -0.1366 0.0000
vn 0.9813 -0.1924 0.0000
vn 0.8931 -0.4499 0.0000
vn -0.9698 -0.2440 0.0000
vn 0.9372 0.2823 0.2049
vn -0.6728 0.6036 0.4279
vn -0.9443 0.1418 -0.2970
vn -0.3735 -0.8890 -0.2650
vn 0.4197 0.8624 -0.2831
vn 0.3480 0.9238 0.1594
vn -0.4135 -0.9103 0.0179
vn -0.9442 0.2931 0.1503
vn 0.9733 0.2289 -0.0159
vn 0.9217 -0.3808 -0.0740
vn -0.9222 -0.3779 0.0813
vn -0.9154 -0.2553 -0.3111
vn -0.8600 -0.0369 0.5089
vn 0.9647 -0.1670 0.2034
vn 0.8582 -0.0372 0.5120
vn 0.4117 -0.9113 -0.0019
vn -0.4378 0.8919 0.1137
vn -0.3886 0.8741 -0.2915
vn 0.0290 -0.9496 -0.3121
vn 0.6685 0.6067 0.4301
vn -0.6453 0.7418 0.1823
vn 0.1094 -0.9621 0.2498
vn 0.9222 -0.3779 0.0813
vn -0.9647 -0.1670 0.2034
vn -0.9372 0.2823 0.2049
vn -0.4082 -0.9017 0.1424
vn 0.4203 0.8623 0.2826
vn 0.9442 0.2931 0.1503
vn 0.4110 -0.9097 -0.0590
vn -0.9217 -0.3808 -0.0740
vn 0.9611 -0.2466 -0.1240
vn 0.9809 0.1277 -0.1468
vn -0.3825 -0.9230 -0.0415
vn -0.9733 0.2289 -0.0159
vn 0.9443 0.1418 -0.2970
vn 0.9154 -0.2553 -0.3111
vn 0.3817 -0.9146 -0.1333
vn -0.3495 0.9228 -0.1625
vn -0.9611 -0.2466 -0.1240
vn 0.4265 0.8763 -0.2239
vn -0.3792 -0.9152 -0.1363
vn -0.9809 0.1277 -0.1468
vn -0.9603 -0.2449 -0.1333
vn 0.9197 -0.2581 -0.2959
vn 0.9603 -0.2449 -0.1333
vn -0.9235 -0.3809 -0.0445
vn -0.8409 -0.5142 0.1685
vn 0.9241 -0.3794 0.0469
vn 0.6401 -0.5927 0.4890
vn 0.8409 -0.5142 0.1685
vn -0.6434 -0.5905 0.4872
vn -0.9197 -0.2581 -0.2959
vn -0.9241 -0.3794 0.0469
vn 0.9235 -0.3809 -0.0445
vn 0.9859 0.0315 -0.1644
vn -0.9512 0.2923 -0.0986
vn -0.9765 0.1487 -0.1561
vn 0.9627 0.2562 -0.0872
vn -0.9859 0.0315 -0.1644
vn 0.9765 0.1487 -0.1561
vn 0.9512 0.2923 -0.0986
vn -0.9627 0.2562 -0.0872
vn 0.9893 0.0558 -0.1348
vn -0.6312 0.6504 -0.4225
vn -0.9515 0.0298 -0.3062
vn 0.8942 0.3342 -0.2980
vn -0.9893 0.0558 -0.1348
vn 0.9515 0.0298 -0.3062
vn 0.6312 0.6504 -0.4225
vn -0.8942 0.3342 -0.2980
vn 0.9912 -0.1321 0.0000
vn -0.9969 -0.0786 0.0000
vn -0.9926 -0.1217 0.0000
vn 0.9951 -0.0986 0.0000
vn -0.9743 -0.2253 0.0000
vn 0.9926 -0.1217 0.0000
vn 0.9970 -0.0780 0.0000
vn -0.9951 -0.0986 0.0000
usemtl マテリアル.001
s off
f 16/1/1 3/2/1 18/3/1
f 3/4/2 4/5/2 8/6/2
f 26/7/3 1/8/3 25/9/3
f 1/10/4 6/11/4 2/12/4
f 21/13/5 9/14/5 19/15/5
f 27/16/5 6/17/5 26/18/5
f 19/19/6 5/20/6 20/21/6
f 23/22/7 7/23/7 5/24/7
f 18/25/8 11/26/8 12/27/8
f 16/28/5 11/29/5 17/30/5
f 21/31/9 12/32/9 20/33/9
f 25/34/10 15/35/10 13/36/10
f 22/37/5 14/38/5 24/39/5
f 24/40/11 13/41/11 23/42/11
f 4/43/5 17/30/5 8/44/5
f 3/45/12 17/46/12 18/25/12
f 10/47/13 18/3/13 12/32/13
f 5/24/14 21/31/14 20/33/14
f 12/27/15 19/19/15 20/21/15
f 10/48/5 19/15/5 11/29/5
f 9/49/16 23/42/16 5/20/16
f 7/50/5 24/39/5 9/14/5
f 13/36/17 22/51/17 23/22/17
f 1/52/18 27/53/18 25/34/18
f 15/54/5 26/18/5 14/38/5
f 14/55/19 25/9/19 13/41/19
f 59/56/20 31/57/20 41/58/20
f 53/59/21 35/60/21 42/61/21
f 72/62/22 33/63/22 43/64/22
f 52/65/23 29/66/23 40/67/23
f 74/68/24 32/69/24 48/70/24
f 73/71/25 29/72/25 49/73/25
f 54/74/26 50/75/26 61/76/26
f 55/77/27 51/78/27 60/79/27
f 58/80/28 39/81/28 44/82/28
f 64/83/29 45/84/29 66/85/29
f 66/85/30 82/86/30 89/87/30
f 58/80/31 81/88/31 87/89/31
f 52/65/23 83/90/23 85/91/23
f 91/92/32 43/64/32 80/93/32
f 84/94/33 42/61/33 79/95/33
f 59/56/34 78/96/34 86/97/34
f 41/58/35 84/98/35 78/96/35
f 80/99/23 52/65/23 85/91/23
f 60/79/36 36/100/36 56/101/36
f 57/102/37 50/75/37 39/103/37
f 73/71/38 33/104/38 71/105/38
f 74/68/39 28/106/39 70/107/39
f 33/108/23 52/65/23 43/109/23
f 31/110/40 53/111/40 41/112/40
f 35/113/41 61/76/41 57/102/41
f 30/114/42 60/79/42 56/101/42
f 82/86/43 59/56/43 86/97/43
f 79/95/44 58/80/44 87/89/44
f 35/60/45 58/80/45 42/61/45
f 34/115/46 60/79/46 46/116/46
f 31/117/47 61/76/47 47/118/47
f 37/119/48 59/56/48 45/84/48
f 36/100/49 69/120/49 62/121/49
f 39/103/50 68/122/50 63/123/50
f 81/88/51 67/124/51 88/125/51
f 77/126/52 89/87/52 90/127/52
f 75/128/53 66/85/53 77/126/53
f 37/129/54 68/122/54 50/75/54
f 38/130/55 69/120/55 51/78/55
f 44/82/56 63/131/56 67/124/56
f 29/132/57 77/126/57 40/133/57
f 40/133/58 90/127/58 83/134/58
f 69/120/59 70/107/59 62/121/59
f 63/123/60 73/71/60 71/105/60
f 88/125/61 72/62/61 91/92/61
f 64/135/62 73/71/62 68/122/62
f 69/120/63 76/136/63 74/68/63
f 67/124/64 71/137/64 72/62/64
f 65/138/65 91/92/65 76/139/65
f 83/134/66 70/140/66 28/141/66
f 90/127/67 62/142/67 70/140/67
f 38/143/68 88/125/68 65/138/68
f 34/144/69 87/89/69 55/145/69
f 36/146/70 86/97/70 56/147/70
f 32/148/23 85/91/23 48/149/23
f 78/96/71 46/150/71 30/151/71
f 86/97/72 30/151/72 56/147/72
f 46/152/73 79/95/73 34/144/73
f 76/139/74 80/93/74 32/153/74
f 85/91/23 28/154/23 48/149/23
f 87/89/75 38/143/75 55/145/75
f 89/87/76 36/146/76 62/142/76
f 101/155/77 94/156/77 103/157/77
f 94/158/78 95/159/78 97/160/78
f 105/161/79 96/162/79 106/163/79
f 96/164/80 93/165/80 92/166/80
f 106/167/81 92/166/81 104/168/81
f 102/169/81 98/170/81 103/171/81
f 101/172/82 100/173/82 102/174/82
f 104/175/83 99/176/83 98/177/83
f 97/178/82 101/172/82 102/174/82
f 97/179/81 103/171/81 94/180/81
f 98/177/77 101/155/77 103/157/77
f 92/181/84 105/182/84 104/175/84
f 100/183/81 104/168/81 98/170/81
f 99/184/85 106/163/85 100/173/85
f 116/185/86 109/186/86 118/187/86
f 109/188/87 110/189/87 112/190/87
f 121/191/88 108/192/88 111/193/88
f 111/193/89 108/192/89 107/194/89
f 121/195/81 107/196/81 119/197/81
f 117/198/81 113/199/81 118/200/81
f 117/201/90 114/202/90 115/203/90
f 120/204/91 113/205/91 119/206/91
f 112/207/92 116/208/92 117/201/92
f 112/209/81 118/200/81 109/210/81
f 114/211/93 118/187/93 113/205/93
f 108/192/94 119/212/94 107/194/94
f 115/213/81 119/197/81 113/199/81
f 115/203/95 120/214/95 121/215/95
f 131/216/96 124/217/96 132/218/96
f 124/219/97 125/220/97 127/221/97
f 134/222/98 126/223/98 122/224/98
f 122/225/99 126/226/99 123/227/99
f 135/228/5 123/229/5 126/230/5
f 131/231/5 130/232/5 133/233/5
f 132/234/100 130/235/100 128/236/100
f 136/237/101 128/238/101 134/239/101
f 124/240/102 133/241/102 132/234/102
f 125/242/5 133/233/5 127/243/5
f 129/244/103 132/218/103 128/238/103
f 123/245/104 134/239/104 122/246/104
f 129/247/5 135/228/5 130/232/5
f 128/236/105 135/248/105 134/222/105
f 16/1/106 4/249/106 3/2/106
f 26/7/107 6/250/107 1/8/107
f 21/13/5 7/50/5 9/14/5
f 27/16/5 2/251/5 6/17/5
f 19/19/108 9/49/108 5/20/108
f 23/22/109 22/51/109 7/23/109
f 18/25/110 17/46/110 11/26/110
f 16/28/5 10/48/5 11/29/5
f 21/31/111 10/47/111 12/32/111
f 25/34/112 27/53/112 15/35/112
f 22/37/5 15/54/5 14/38/5
f 24/40/113 14/55/113 13/41/113
f 4/43/5 16/28/5 17/30/5
f 3/45/114 8/252/114 17/46/114
f 10/47/115 16/1/115 18/3/115
f 5/24/116 7/23/116 21/31/116
f 12/27/117 11/26/117 19/19/117
f 10/48/5 21/13/5 19/15/5
f 9/49/118 24/40/118 23/42/118
f 7/50/5 22/37/5 24/39/5
f 13/36/119 15/35/119 22/51/119
f 1/52/120 2/253/120 27/53/120
f 15/54/5 27/16/5 26/18/5
f 14/55/121 26/7/121 25/9/121
f 59/56/122 54/254/122 31/57/122
f 53/59/123 47/255/123 35/60/123
f 72/62/124 71/137/124 33/63/124
f 52/65/23 49/256/23 29/66/23
f 74/68/125 76/136/125 32/69/125
f 73/71/126 75/257/126 29/72/126
f 54/74/127 37/129/127 50/75/127
f 55/77/128 38/130/128 51/78/128
f 58/80/129 57/258/129 39/81/129
f 64/83/130 37/119/130 45/84/130
f 66/85/131 45/84/131 82/86/131
f 58/80/132 44/82/132 81/88/132
f 52/65/23 40/67/23 83/90/23
f 91/92/133 72/62/133 43/64/133
f 84/94/134 53/59/134 42/61/134
f 59/56/135 41/58/135 78/96/135
f 41/58/136 53/259/136 84/98/136
f 80/99/23 43/109/23 52/65/23
f 60/79/137 51/78/137 36/100/137
f 57/102/138 61/76/138 50/75/138
f 73/71/139 49/73/139 33/104/139
f 74/68/140 48/70/140 28/106/140
f 33/108/23 49/256/23 52/65/23
f 31/110/141 47/260/141 53/111/141
f 35/113/142 47/118/142 61/76/142
f 30/114/143 46/116/143 60/79/143
f 82/86/144 45/84/144 59/56/144
f 79/95/145 42/61/145 58/80/145
f 35/60/146 57/258/146 58/80/146
f 34/115/147 55/77/147 60/79/147
f 31/117/148 54/74/148 61/76/148
f 37/119/149 54/254/149 59/56/149
f 36/100/150 51/78/150 69/120/150
f 39/103/50 50/75/50 68/122/50
f 81/88/151 44/82/151 67/124/151
f 77/126/152 66/85/152 89/87/152
f 75/128/153 64/83/153 66/85/153
f 37/129/54 64/135/54 68/122/54
f 38/130/154 65/261/154 69/120/154
f 44/82/155 39/81/155 63/131/155
f 29/132/156 75/128/156 77/126/156
f 40/133/157 77/126/157 90/127/157
f 69/120/158 74/68/158 70/107/158
f 63/123/159 68/122/159 73/71/159
f 88/125/160 67/124/160 72/62/160
f 64/135/161 75/257/161 73/71/161
f 69/120/162 65/261/162 76/136/162
f 67/124/163 63/131/163 71/137/163
f 65/138/164 88/125/164 91/92/164
f 83/134/165 90/127/165 70/140/165
f 90/127/166 89/87/166 62/142/166
f 38/143/167 81/88/167 88/125/167
f 34/144/168 79/95/168 87/89/168
f 36/146/169 82/86/169 86/97/169
f 32/148/23 80/99/23 85/91/23
f 78/96/170 84/98/170 46/150/170
f 86/97/171 78/96/171 30/151/171
f 46/152/172 84/94/172 79/95/172
f 76/139/173 91/92/173 80/93/173
f 85/91/23 83/90/23 28/154/23
f 87/89/174 81/88/174 38/143/174
f 89/87/175 82/86/175 36/146/175
f 101/155/176 95/262/176 94/156/176
f 105/161/177 93/263/177 96/162/177
f 106/167/81 96/164/81 92/166/81
f 102/169/81 100/183/81 98/170/81
f 101/172/178 99/184/178 100/173/178
f 104/175/179 105/182/179 99/176/179
f 97/178/180 95/264/180 101/172/180
f 97/179/81 102/169/81 103/171/81
f 98/177/181 99/176/181 101/155/181
f 92/181/182 93/265/182 105/182/182
f 100/183/81 106/167/81 104/168/81
f 99/184/183 105/161/183 106/163/183
f 116/185/184 110/266/184 109/186/184
f 121/191/185 120/267/185 108/192/185
f 121/195/81 111/268/81 107/196/81
f 117/198/81 115/213/81 113/199/81
f 117/201/186 116/208/186 114/202/186
f 120/204/187 114/211/187 113/205/187
f 112/207/188 110/269/188 116/208/188
f 112/209/81 117/198/81 118/200/81
f 114/211/189 116/185/189 118/187/189
f 108/192/190 120/267/190 119/212/190
f 115/213/81 121/195/81 119/197/81
f 115/203/191 114/202/191 120/214/191
f 131/216/192 125/270/192 124/217/192
f 134/222/193 135/248/193 126/223/193
f 135/228/5 136/271/5 123/229/5
f 131/231/5 129/247/5 130/232/5
f 132/234/194 133/241/194 130/235/194
f 136/237/195 129/244/195 128/238/195
f 124/240/196 127/272/196 133/241/196
f 125/242/5 131/231/5 133/233/5
f 129/244/197 131/216/197 132/218/197
f 123/245/198 136/237/198 134/239/198
f 129/247/5 136/271/5 135/228/5
f 128/236/199 130/235/199 135/248/199
