# Blender v3.5.0 OBJ File: 'tunaBody.blend'
# www.blender.org
mtllib Enemy.mtl
o 立方体.005_立方体.006
v 0.000000 -1.068485 -6.800754
v 0.167911 -0.735124 -7.084239
v 0.000000 -2.700191 -3.526886
v 0.167911 -0.735124 -2.643305
v 0.000000 -2.394711 -5.214247
v -0.167911 -0.735124 -7.084239
v 0.167911 -0.735124 -4.863772
v -0.167911 -0.735124 -2.643305
v -0.167911 -0.735124 -4.863772
v 0.167911 -0.735124 -3.753539
v -0.167911 -0.735124 -3.753539
v 0.000000 -4.204816 -4.501590
v 0.000000 -1.591369 -5.951660
v -0.167911 -0.735124 -5.974005
v 0.167911 -0.735124 -5.974005
v 0.167911 -0.735124 -3.198422
v -0.167911 -0.735124 -3.198422
v 0.000000 -3.720461 -4.093799
v -0.167911 -0.735124 -4.308655
v -0.143961 -4.666845 -4.847736
v 0.167911 -0.735124 -4.308655
v 0.167911 -0.735124 -5.418889
v 0.000000 -1.953086 -5.581737
v -0.167911 -0.735124 -5.418889
v 0.000000 -1.402406 -6.325595
v -0.167911 -0.735124 -6.529122
v 0.167911 -0.735124 -6.529122
v 0.325969 -0.620575 -8.839003
v 0.384449 0.939884 -8.839003
v 0.812081 -1.631106 8.535437
v 0.881567 0.989466 9.331976
v -0.325969 -0.620575 -8.839003
v -0.384449 0.939884 -8.839003
v -0.812081 -1.631106 8.535437
v -0.881567 0.989466 9.331976
v 1.799597 -1.767914 1.439411
v 1.874552 2.488604 1.735243
v -1.799597 -1.767914 1.439411
v -1.874552 2.488604 1.735243
v 0.443833 -0.086363 -8.839003
v 1.240673 -0.112566 9.363272
v -1.240673 -0.112566 9.363272
v -0.443833 -0.086363 -8.839003
v -2.480833 -0.112566 1.407035
v 2.480833 -0.112566 1.407035
v -0.005075 -1.281106 10.241093
v -0.005075 1.638207 9.794945
v -0.004331 -0.630664 -8.839003
v -0.004331 1.108859 -8.839003
v -0.005075 3.196585 1.735243
v -0.005075 -2.583124 1.439411
v -0.004331 -0.086363 -8.839003
v -0.005075 0.435695 11.491138
v 1.447444 2.033509 5.304922
v -1.799597 -1.691455 5.321959
v 1.799597 -1.691455 5.321959
v -1.447444 2.033509 5.304922
v -2.166531 -0.112566 4.972559
v 2.166531 -0.112566 4.972559
v 0.091712 -2.547543 5.321959
v -0.005075 2.741491 5.304922
v 1.799597 -1.606282 -2.158491
v -1.874552 2.218437 -2.158491
v 1.874552 2.218437 -2.158491
v -1.799597 -1.606282 -2.158491
v 2.213544 -0.112566 -1.920881
v -2.213544 -0.112566 -1.920881
v -0.005075 2.926418 -2.158491
v -0.005075 -2.349816 -2.158491
v 1.476137 -1.352417 -4.762265
v -1.551091 1.710610 -4.762265
v -1.862341 -0.112566 -4.643459
v -0.005075 2.467929 -4.762265
v -0.005075 -1.970485 -4.762265
v 1.551091 1.710610 -4.762265
v -1.476137 -1.352417 -4.762265
v 1.862341 -0.112566 -4.643459
v 1.133897 -0.871836 9.246197
v -1.133897 -0.871836 9.246197
v -0.412024 -0.471000 -8.839003
v -2.140215 -0.940240 1.423223
v 2.140215 -0.940240 1.423223
v 0.412024 -0.471000 -8.839003
v -0.005075 -0.293454 11.438217
v -0.004331 -0.587016 -8.839003
v 1.983064 -0.883847 4.972559
v -1.983064 -0.883847 4.972559
v -2.006571 -0.859424 -2.039685
v 2.006571 -0.859424 -2.039685
v 1.669239 -0.732492 -4.702862
v -1.669239 -0.732492 -4.702862
v 0.666100 1.509698 0.854934
v -0.000703 2.941718 -1.332429
v 0.666100 1.509698 4.754735
v -0.000703 5.442255 1.509205
v -0.667505 1.509698 0.854934
v -0.667505 1.509698 4.754735
v 0.666100 1.509698 2.804834
v -0.000703 3.606582 0.630117
v -0.667505 1.509698 2.804834
v -0.000703 4.299284 1.289983
v -0.667505 1.509698 3.779785
v 0.666100 1.509698 3.779785
v 0.666100 1.509698 1.829885
v -0.000703 3.308031 -0.246809
v -0.667505 1.509698 1.829885
v 0.380267 2.178930 -4.008239
v 0.000000 2.282446 -3.698682
v 0.380267 2.178930 -1.135003
v 0.000000 5.360295 -2.609869
v -0.380267 2.178930 -4.008239
v -0.380267 2.178930 -1.135003
v 0.380267 2.178930 -2.571621
v 0.000000 2.840718 -2.970531
v -0.380267 2.178930 -2.571621
v 0.000000 4.995756 -2.760732
v -0.380267 2.178930 -1.853312
v 0.380267 2.178930 -1.853312
v 0.380267 2.178930 -3.289930
v 0.000000 2.526832 -3.322515
v -0.380267 2.178930 -3.289930
v 0.000000 -4.699833 0.953965
v 0.229089 -1.675354 1.167345
v 0.061613 -2.932247 3.039370
v 0.229089 -1.675354 3.935498
v -0.229089 -1.675354 1.142328
v -0.229089 -1.675354 3.992493
v 0.000000 -3.986705 1.863462
v 0.229089 -1.675354 2.526240
v -0.229089 -1.675354 2.526240
v 0.229089 -1.675354 3.259367
v 0.000000 -3.543204 2.403680
v -0.229089 -1.675354 3.259367
v 0.000998 -4.592200 1.201444
v -0.229089 -1.675354 1.793113
v 0.229089 -1.675354 1.793113
vt 0.625000 0.218750
vt 0.375000 0.250000
vt 0.375000 0.218750
vt 0.625000 0.250000
vt 0.625000 0.500000
vt 0.625000 0.718750
vt 0.375000 0.750000
vt 0.375000 0.718750
vt 0.625000 0.750000
vt 0.625000 1.000000
vt 0.875000 0.593750
vt 0.625000 0.625000
vt 0.625000 0.593750
vt 0.875000 0.718750
vt 0.375000 0.625000
vt 0.375000 0.593750
vt 0.375000 0.093750
vt 0.625000 0.125000
vt 0.375000 0.125000
vt 0.375000 0.531250
vt 0.625000 0.562500
vt 0.375000 0.562500
vt 0.875000 0.531250
vt 0.625000 0.531250
vt 0.625000 0.156250
vt 0.375000 0.187500
vt 0.375000 0.156250
vt 0.375000 0.031250
vt 0.625000 0.062500
vt 0.375000 0.062500
vt 0.875000 0.656250
vt 0.625000 0.687500
vt 0.625000 0.656250
vt 0.375000 0.687500
vt 0.375000 0.656250
vt 0.875000 0.500000
vt 0.375000 0.500000
vt 0.625000 0.187500
vt 0.875000 0.562500
vt 0.875000 0.625000
vt 0.625000 0.093750
vt 0.375000 0.000000
vt 0.625000 0.031250
vt 0.875000 0.687500
vt 0.500000 0.187500
vt 0.625000 0.250000
vt 0.500000 0.250000
vt 0.500000 0.375275
vt 0.625000 0.500000
vt 0.500000 0.500000
vt 0.500000 0.718750
vt 0.625000 0.750000
vt 0.500000 0.750000
vt 0.500000 0.874725
vt 0.625000 1.000000
vt 0.500000 1.000000
vt 0.250275 0.718750
vt 0.375000 0.750000
vt 0.250275 0.750000
vt 0.749725 0.718750
vt 0.875000 0.750000
vt 0.749725 0.750000
vt 0.875000 0.562500
vt 0.749725 0.625000
vt 0.749725 0.562500
vt 0.375000 0.562500
vt 0.250275 0.625000
vt 0.250275 0.562500
vt 0.500000 0.562500
vt 0.625000 0.625000
vt 0.500000 0.625000
vt 0.625000 0.062500
vt 0.500000 0.125000
vt 0.500000 0.062500
vt 0.437500 0.125000
vt 0.437500 0.062500
vt 0.437500 0.625000
vt 0.437500 0.562500
vt 0.437500 1.000000
vt 0.437500 0.874725
vt 0.437500 0.718750
vt 0.437500 0.750000
vt 0.437500 0.375275
vt 0.437500 0.500000
vt 0.437500 0.250000
vt 0.437500 0.187500
vt 0.125000 0.625000
vt 0.125000 0.562500
vt 0.625000 0.562500
vt 0.625000 0.718750
vt 0.125000 0.750000
vt 0.125000 0.718750
vt 0.125000 0.500000
vt 0.375000 0.500000
vt 0.250275 0.500000
vt 0.875000 0.500000
vt 0.749725 0.500000
vt 0.625000 0.125000
vt 0.250275 0.687500
vt 0.125000 0.687500
vt 0.749725 0.687500
vt 0.625000 0.687500
vt 0.500000 0.687500
vt 0.437500 0.687500
vt 0.500000 0.031250
vt 0.437500 0.031250
vt 0.875000 0.625000
vt 0.375000 0.625000
vt 0.625000 0.000000
vt 0.500000 0.000000
vt 0.437500 0.000000
vt 0.875000 0.687500
vt 0.375000 0.718750
vt 0.375000 0.687500
vt 0.375000 0.031250
vt 0.375000 0.000000
vt 0.375000 0.062500
vt 0.375000 0.125000
vt 0.375000 0.187500
vt 0.375000 0.874725
vt 0.375000 0.375275
vt 0.375000 0.250000
vt 0.375000 1.000000
vt 0.375000 0.187500
vt 0.625000 0.250000
vt 0.375000 0.250000
vt 0.625000 0.500000
vt 0.375000 0.500000
vt 0.625000 0.687500
vt 0.375000 0.750000
vt 0.375000 0.687500
vt 0.625000 1.000000
vt 0.375000 1.000000
vt 0.125000 0.750000
vt 0.125000 0.687500
vt 0.375000 0.562500
vt 0.125000 0.625000
vt 0.125000 0.562500
vt 0.625000 0.562500
vt 0.375000 0.625000
vt 0.375000 0.062500
vt 0.625000 0.125000
vt 0.375000 0.125000
vt 0.125000 0.500000
vt 0.625000 0.187500
vt 0.375000 0.000000
vt 0.625000 0.062500
vt 0.625000 0.625000
vt 0.625000 0.187500
vt 0.375000 0.250000
vt 0.375000 0.187500
vt 0.625000 0.500000
vt 0.375000 0.500000
vt 0.375000 0.687500
vt 0.625000 0.750000
vt 0.375000 0.750000
vt 0.625000 1.000000
vt 0.375000 1.000000
vt 0.125000 0.750000
vt 0.125000 0.687500
vt 0.375000 0.562500
vt 0.125000 0.625000
vt 0.125000 0.562500
vt 0.625000 0.625000
vt 0.375000 0.625000
vt 0.625000 0.062500
vt 0.375000 0.125000
vt 0.375000 0.062500
vt 0.625000 0.562500
vt 0.125000 0.500000
vt 0.625000 0.125000
vt 0.625000 0.000000
vt 0.375000 0.000000
vt 0.625000 0.687500
vt 0.625000 0.187500
vt 0.375000 0.250000
vt 0.375000 0.187500
vt 0.625000 0.250000
vt 0.625000 0.500000
vt 0.375000 0.687500
vt 0.625000 0.750000
vt 0.375000 0.750000
vt 0.625000 1.000000
vt 0.625000 0.687500
vt 0.875000 0.750000
vt 0.875000 0.562500
vt 0.625000 0.625000
vt 0.625000 0.562500
vt 0.375000 0.562500
vt 0.375000 0.625000
vt 0.625000 0.062500
vt 0.375000 0.125000
vt 0.375000 0.062500
vt 0.375000 0.500000
vt 0.875000 0.500000
vt 0.625000 0.125000
vt 0.625000 0.000000
vt 0.375000 0.000000
vt 0.875000 0.625000
vt 0.875000 0.750000
vt 0.625000 0.000000
vt 0.625000 0.187500
vt 0.625000 0.375275
vt 0.625000 0.874725
vt 0.875000 0.718750
vt 0.625000 0.031250
vt 0.625000 0.750000
vt 0.625000 0.000000
vt 0.625000 0.250000
vt 0.875000 0.687500
vn 0.9698 -0.1185 0.2133
vn 0.0000 -0.4101 0.9120
vn -0.9312 -0.2982 -0.2096
vn 0.0000 -0.6478 -0.7618
vn 0.0000 1.0000 0.0000
vn -0.9737 0.0251 -0.2266
vn 0.9921 -0.0801 -0.0962
vn -0.9949 -0.0647 0.0769
vn 0.9346 -0.0255 -0.3547
vn 0.9761 -0.1940 -0.0980
vn -0.9858 -0.1202 -0.1175
vn -0.9698 -0.1185 0.2133
vn 0.9949 -0.0647 0.0769
vn 0.9960 -0.0717 -0.0533
vn -0.8855 -0.0684 0.4596
vn -0.9921 -0.0801 -0.0962
vn 0.9858 -0.1202 -0.1175
vn 0.9312 -0.2982 -0.2096
vn -0.9761 -0.1940 -0.0980
vn 0.9307 0.3088 0.1962
vn -0.8579 0.2916 0.4230
vn -0.9460 0.0547 -0.3195
vn 0.0000 0.0000 -1.0000
vn -0.0298 -0.9496 -0.3121
vn 0.3812 0.8771 -0.2923
vn 0.4353 0.8931 0.1139
vn -0.4123 -0.9109 0.0186
vn -0.9726 0.2159 0.0857
vn 0.9876 0.1355 -0.0793
vn 0.9645 -0.2604 -0.0433
vn -0.9718 -0.2312 0.0467
vn -0.9524 -0.0788 -0.2945
vn -0.8501 -0.1950 0.4892
vn 0.9551 -0.2272 0.1904
vn 0.8483 -0.1952 0.4923
vn 0.4480 -0.8938 0.0176
vn -0.3496 0.9232 0.1595
vn -0.4219 0.8612 -0.2835
vn 0.3714 -0.8900 -0.2645
vn 0.8564 0.2912 0.4264
vn -0.4227 0.8611 0.2826
vn 0.4429 -0.8835 0.1527
vn 0.9718 -0.2312 0.0467
vn -0.9551 -0.2272 0.1904
vn -0.9307 0.3088 0.1962
vn -0.1022 -0.9638 0.2461
vn 0.6410 0.7454 0.1832
vn 0.9726 0.2159 0.0857
vn 0.3806 -0.9238 -0.0415
vn -0.3534 0.9332 -0.0648
vn -0.9645 -0.2604 -0.0433
vn 0.9497 -0.2830 -0.1338
vn 0.9834 0.1301 -0.1268
vn 0.3517 0.9339 -0.0648
vn -0.4129 -0.9089 -0.0589
vn -0.9876 0.1355 -0.0793
vn 0.9460 0.0547 -0.3195
vn 0.9524 -0.0788 -0.2945
vn 0.3774 -0.9160 -0.1362
vn -0.4287 0.8752 -0.2240
vn -0.9497 -0.2830 -0.1338
vn 0.3478 0.9234 -0.1626
vn -0.3839 -0.9137 -0.1331
vn -0.9834 0.1301 -0.1268
vn -0.9485 -0.2815 -0.1453
vn 0.8221 -0.4730 -0.3169
vn 0.9485 -0.2815 -0.1453
vn -0.9641 -0.2653 -0.0119
vn -0.9516 -0.0889 0.2941
vn 0.9755 -0.2197 0.0043
vn 0.6135 -0.6624 0.4299
vn 0.9516 -0.0889 0.2941
vn -0.6164 -0.6613 0.4274
vn -0.8221 -0.4730 -0.3169
vn -0.9755 -0.2197 0.0043
vn 0.9641 -0.2653 -0.0119
vn 0.9859 0.1672 0.0000
vn 0.0000 0.6365 0.7713
vn -0.9376 0.3477 0.0000
vn 0.0000 -0.8367 -0.5477
vn 0.0000 -1.0000 0.0000
vn -0.9726 0.2325 0.0000
vn 0.9530 0.3030 0.0000
vn -0.9859 0.1672 0.0000
vn 0.9726 0.2325 0.0000
vn 0.9376 0.3477 0.0000
vn -0.9530 0.3030 0.0000
vn 0.9910 0.1338 0.0000
vn 0.0000 0.4206 0.9072
vn -0.2627 0.9649 0.0000
vn 0.0000 0.9484 -0.3171
vn -0.8671 0.4982 0.0000
vn 0.6750 0.7378 0.0000
vn -0.9910 0.1338 0.0000
vn 0.8671 0.4982 0.0000
vn 0.2627 0.9649 0.0000
vn -0.6750 0.7378 0.0000
vn 0.9897 -0.1384 0.0371
vn 0.1000 -0.5864 0.8038
vn -0.9962 -0.0778 0.0379
vn 0.0544 0.0662 -0.9963
vn -0.9862 -0.1278 0.1050
vn 0.9914 -0.0956 0.0889
vn -0.8993 -0.2684 0.3451
vn 0.9862 -0.1278 0.1050
vn 0.9965 -0.0776 0.0297
vn -0.9917 -0.0957 0.0860
vn 0.9964 -0.0851 0.0000
vn -0.8931 -0.4499 0.0000
vn -0.9949 -0.1007 0.0000
vn 0.9906 -0.1366 0.0000
vn -0.9984 -0.0562 0.0000
vn 0.9988 -0.0483 0.0000
vn 0.9698 -0.2440 0.0000
vn -0.9813 -0.1924 0.0000
vn -0.9964 -0.0851 0.0000
vn 0.9984 -0.0562 0.0000
vn 0.9949 -0.1007 0.0000
vn -0.9988 -0.0483 0.0000
vn -0.9906 -0.1366 0.0000
vn 0.9813 -0.1924 0.0000
vn 0.8931 -0.4499 0.0000
vn -0.9698 -0.2440 0.0000
vn 0.9372 0.2823 0.2049
vn -0.6728 0.6036 0.4279
vn -0.9443 0.1418 -0.2970
vn -0.3735 -0.8890 -0.2650
vn 0.4197 0.8624 -0.2831
vn 0.3480 0.9238 0.1594
vn -0.4135 -0.9103 0.0179
vn -0.9442 0.2931 0.1503
vn 0.9733 0.2289 -0.0159
vn 0.9217 -0.3808 -0.0740
vn -0.9222 -0.3779 0.0813
vn -0.9154 -0.2553 -0.3111
vn -0.8600 -0.0369 0.5089
vn 0.9647 -0.1670 0.2034
vn 0.8582 -0.0372 0.5120
vn 0.4117 -0.9113 -0.0019
vn -0.4378 0.8919 0.1137
vn -0.3886 0.8741 -0.2915
vn 0.0290 -0.9496 -0.3121
vn 0.6685 0.6067 0.4301
vn -0.6453 0.7418 0.1823
vn 0.1094 -0.9621 0.2498
vn 0.9222 -0.3779 0.0813
vn -0.9647 -0.1670 0.2034
vn -0.9372 0.2823 0.2049
vn -0.4082 -0.9017 0.1424
vn 0.4203 0.8623 0.2826
vn 0.9442 0.2931 0.1503
vn 0.4110 -0.9097 -0.0590
vn -0.9217 -0.3808 -0.0740
vn 0.9611 -0.2466 -0.1240
vn 0.9759 0.1567 -0.1518
vn -0.3825 -0.9230 -0.0415
vn -0.9733 0.2289 -0.0159
vn 0.9443 0.1418 -0.2970
vn 0.9154 -0.2553 -0.3111
vn 0.3817 -0.9146 -0.1333
vn -0.3495 0.9228 -0.1625
vn -0.9611 -0.2466 -0.1240
vn 0.4265 0.8763 -0.2239
vn -0.3792 -0.9152 -0.1363
vn -0.9759 0.1567 -0.1518
vn -0.9603 -0.2449 -0.1333
vn 0.9197 -0.2581 -0.2959
vn 0.9603 -0.2449 -0.1333
vn -0.9235 -0.3809 -0.0445
vn -0.8409 -0.5142 0.1685
vn 0.9241 -0.3794 0.0469
vn 0.6401 -0.5927 0.4890
vn 0.8409 -0.5142 0.1685
vn -0.6434 -0.5905 0.4872
vn -0.9197 -0.2581 -0.2959
vn -0.9241 -0.3794 0.0469
vn 0.9235 -0.3809 -0.0445
vn 0.9757 0.0413 -0.2151
vn -0.9512 0.2923 -0.0986
vn -0.9765 0.1487 -0.1561
vn 0.9627 0.2562 -0.0872
vn -0.9757 0.0413 -0.2151
vn 0.9765 0.1487 -0.1561
vn 0.9512 0.2923 -0.0986
vn -0.9627 0.2562 -0.0872
vn 0.9893 0.0558 -0.1348
vn -0.6312 0.6504 -0.4225
vn -0.9515 0.0298 -0.3062
vn 0.8942 0.3342 -0.2980
vn -0.9893 0.0558 -0.1348
vn 0.9515 0.0298 -0.3062
vn 0.6312 0.6504 -0.4225
vn -0.8942 0.3342 -0.2980
vn 0.9912 -0.1321 0.0000
vn -0.9969 -0.0786 0.0000
vn -0.9926 -0.1217 0.0000
vn 0.9951 -0.0986 0.0000
vn -0.9743 -0.2253 0.0000
vn 0.9926 -0.1217 0.0000
vn 0.9970 -0.0780 0.0000
vn -0.9951 -0.0986 0.0000
usemtl None
s off
f 16/1/1 3/2/1 18/3/1
f 3/2/2 4/4/2 8/5/2
f 26/6/3 1/7/3 25/8/3
f 1/7/4 6/9/4 2/10/4
f 21/11/5 9/12/5 19/13/5
f 27/14/5 6/9/5 26/6/5
f 19/13/6 5/15/6 20/16/6
f 23/17/7 7/18/7 5/19/7
f 18/20/8 11/21/8 12/22/8
f 16/23/5 11/21/5 17/24/5
f 21/25/9 12/26/9 20/27/9
f 25/28/10 15/29/10 13/30/10
f 22/31/5 14/32/5 24/33/5
f 24/33/11 13/34/11 23/35/11
f 4/36/5 17/24/5 8/5/5
f 3/37/12 17/24/12 18/20/12
f 10/38/13 18/3/13 12/26/13
f 5/19/14 21/25/14 20/27/14
f 12/22/15 19/13/15 20/16/15
f 10/39/5 19/13/5 11/21/5
f 9/12/16 23/35/16 5/15/16
f 7/40/5 24/33/5 9/12/5
f 13/30/17 22/41/17 23/17/17
f 1/42/18 27/43/18 25/28/18
f 15/44/5 26/6/5 14/32/5
f 14/32/19 25/8/19 13/34/19
f 59/45/20 31/46/20 41/47/20
f 53/48/21 35/49/21 42/50/21
f 72/51/22 33/52/22 43/53/22
f 52/54/23 29/55/23 40/56/23
f 74/57/24 32/58/24 48/59/24
f 73/60/25 29/61/25 49/62/25
f 54/63/26 50/64/26 61/65/26
f 55/66/27 51/67/27 60/68/27
f 58/69/28 39/70/28 44/71/28
f 64/72/29 45/73/29 66/74/29
f 66/74/30 82/75/30 89/76/30
f 58/69/31 81/77/31 87/78/31
f 52/54/23 83/79/23 85/80/23
f 91/81/32 43/53/32 80/82/32
f 84/83/33 42/50/33 79/84/33
f 59/45/34 78/85/34 86/86/34
f 41/47/35 84/83/35 78/85/35
f 80/82/23 52/54/23 85/80/23
f 60/68/36 36/87/36 56/88/36
f 57/89/37 50/64/37 39/70/37
f 73/60/38 33/52/38 71/90/38
f 74/57/39 28/91/39 70/92/39
f 33/52/23 52/54/23 43/53/23
f 31/46/40 53/48/40 41/47/40
f 35/49/41 61/65/41 57/89/41
f 30/93/42 60/68/42 56/88/42
f 82/75/43 59/45/43 86/86/43
f 79/84/44 58/69/44 87/78/44
f 35/49/45 58/69/45 42/50/45
f 34/94/46 60/68/46 46/95/46
f 31/96/47 61/65/47 47/97/47
f 37/98/48 59/45/48 45/73/48
f 36/87/49 69/99/49 62/100/49
f 39/70/50 68/101/50 63/102/50
f 81/77/51 67/103/51 88/104/51
f 77/105/52 89/76/52 90/106/52
f 77/105/53 64/72/53 66/74/53
f 37/107/54 68/101/54 50/64/54
f 38/108/55 69/99/55 51/67/55
f 44/71/56 63/102/56 67/103/56
f 29/109/57 77/105/57 40/110/57
f 40/110/58 90/106/58 83/111/58
f 69/99/59 70/92/59 62/100/59
f 63/102/60 73/60/60 71/90/60
f 88/104/61 72/51/61 91/81/61
f 64/112/62 73/60/62 68/101/62
f 69/99/63 76/113/63 74/57/63
f 63/102/64 72/51/64 67/103/64
f 65/114/65 91/81/65 76/113/65
f 83/111/66 70/115/66 28/116/66
f 90/106/67 62/117/67 70/115/67
f 38/108/68 88/104/68 65/114/68
f 34/94/69 87/78/69 55/66/69
f 36/118/70 86/86/70 56/119/70
f 32/58/23 85/80/23 48/120/23
f 78/85/71 46/121/71 30/122/71
f 86/86/72 30/122/72 56/119/72
f 46/121/73 79/84/73 34/94/73
f 76/113/74 80/82/74 32/58/74
f 85/80/23 28/123/23 48/120/23
f 87/78/75 38/108/75 55/66/75
f 89/76/76 36/118/76 62/117/76
f 103/124/77 95/125/77 94/126/77
f 94/126/78 95/127/78 97/128/78
f 105/129/79 96/130/79 106/131/79
f 96/130/80 93/132/80 92/133/80
f 106/131/81 92/134/81 104/135/81
f 102/136/81 98/137/81 103/138/81
f 101/139/82 100/140/82 102/136/82
f 104/141/83 99/142/83 98/143/83
f 95/127/84 102/136/84 97/128/84
f 97/128/81 103/138/81 94/144/81
f 98/143/85 101/145/85 103/124/85
f 92/146/86 105/147/86 104/141/86
f 100/140/81 104/135/81 98/137/81
f 99/148/87 106/131/87 100/140/87
f 116/149/88 109/150/88 118/151/88
f 109/150/89 110/152/89 112/153/89
f 121/154/90 108/155/90 111/156/90
f 111/156/91 108/157/91 107/158/91
f 121/154/81 107/159/81 119/160/81
f 117/161/81 113/162/81 118/163/81
f 117/161/92 114/164/92 115/165/92
f 120/166/93 113/167/93 119/168/93
f 112/153/94 116/169/94 117/161/94
f 112/153/81 118/163/81 109/170/81
f 114/171/95 118/151/95 113/167/95
f 108/172/96 119/168/96 107/173/96
f 115/165/81 119/160/81 113/162/81
f 115/165/97 120/174/97 121/154/97
f 131/175/98 124/176/98 132/177/98
f 124/176/99 125/178/99 127/179/99
f 134/180/100 126/181/100 122/182/100
f 122/182/101 126/181/101 123/183/101
f 135/184/5 123/185/5 126/181/5
f 131/186/5 130/187/5 133/188/5
f 132/189/102 130/187/102 128/190/102
f 136/191/103 128/192/103 134/193/103
f 124/194/104 133/188/104 132/189/104
f 125/195/5 133/188/5 127/179/5
f 129/196/105 132/177/105 128/192/105
f 123/197/106 134/193/106 122/198/106
f 129/199/5 135/184/5 130/187/5
f 128/190/107 135/184/107 134/180/107
f 16/1/108 4/4/108 3/2/108
f 26/6/109 6/9/109 1/7/109
f 21/11/5 7/40/5 9/12/5
f 27/14/5 2/200/5 6/9/5
f 19/13/110 9/12/110 5/15/110
f 23/17/111 22/41/111 7/18/111
f 18/20/112 17/24/112 11/21/112
f 16/23/5 10/39/5 11/21/5
f 21/25/113 10/38/113 12/26/113
f 25/28/114 27/43/114 15/29/114
f 22/31/5 15/44/5 14/32/5
f 24/33/115 14/32/115 13/34/115
f 4/36/5 16/23/5 17/24/5
f 3/37/116 8/5/116 17/24/116
f 10/38/117 16/1/117 18/3/117
f 5/19/118 7/18/118 21/25/118
f 12/22/119 11/21/119 19/13/119
f 10/39/5 21/11/5 19/13/5
f 9/12/120 24/33/120 23/35/120
f 7/40/5 22/31/5 24/33/5
f 13/30/121 15/29/121 22/41/121
f 1/42/122 2/201/122 27/43/122
f 15/44/5 27/14/5 26/6/5
f 14/32/123 26/6/123 25/8/123
f 59/45/124 54/202/124 31/46/124
f 53/48/125 47/203/125 35/49/125
f 72/51/126 71/90/126 33/52/126
f 52/54/23 49/204/23 29/55/23
f 74/57/127 76/113/127 32/58/127
f 73/60/128 75/205/128 29/61/128
f 54/63/129 37/107/129 50/64/129
f 55/66/130 38/108/130 51/67/130
f 58/69/131 57/89/131 39/70/131
f 64/72/132 37/98/132 45/73/132
f 66/74/133 45/73/133 82/75/133
f 58/69/134 44/71/134 81/77/134
f 52/54/23 40/56/23 83/79/23
f 91/81/135 72/51/135 43/53/135
f 84/83/136 53/48/136 42/50/136
f 59/45/137 41/47/137 78/85/137
f 41/47/138 53/48/138 84/83/138
f 80/82/23 43/53/23 52/54/23
f 60/68/139 51/67/139 36/87/139
f 57/89/140 61/65/140 50/64/140
f 73/60/141 49/62/141 33/52/141
f 74/57/142 48/59/142 28/91/142
f 33/52/23 49/204/23 52/54/23
f 31/46/143 47/203/143 53/48/143
f 35/49/144 47/97/144 61/65/144
f 30/93/145 46/95/145 60/68/145
f 82/75/146 45/73/146 59/45/146
f 79/84/147 42/50/147 58/69/147
f 35/49/148 57/89/148 58/69/148
f 34/94/149 55/66/149 60/68/149
f 31/96/150 54/63/150 61/65/150
f 37/98/151 54/202/151 59/45/151
f 36/87/152 51/67/152 69/99/152
f 39/70/50 50/64/50 68/101/50
f 81/77/153 44/71/153 67/103/153
f 77/105/154 66/74/154 89/76/154
f 77/105/155 75/206/155 64/72/155
f 37/107/54 64/112/54 68/101/54
f 38/108/156 65/114/156 69/99/156
f 44/71/157 39/70/157 63/102/157
f 29/109/158 75/206/158 77/105/158
f 40/110/159 77/105/159 90/106/159
f 69/99/160 74/57/160 70/92/160
f 63/102/161 68/101/161 73/60/161
f 88/104/162 67/103/162 72/51/162
f 64/112/163 75/205/163 73/60/163
f 69/99/164 65/114/164 76/113/164
f 63/102/165 71/90/165 72/51/165
f 65/114/166 88/104/166 91/81/166
f 83/111/167 90/106/167 70/115/167
f 90/106/168 89/76/168 62/117/168
f 38/108/169 81/77/169 88/104/169
f 34/94/170 79/84/170 87/78/170
f 36/118/171 82/75/171 86/86/171
f 32/58/23 80/82/23 85/80/23
f 78/85/172 84/83/172 46/121/172
f 86/86/173 78/85/173 30/122/173
f 46/121/174 84/83/174 79/84/174
f 76/113/175 91/81/175 80/82/175
f 85/80/23 83/79/23 28/123/23
f 87/78/176 81/77/176 38/108/176
f 89/76/177 82/75/177 36/118/177
f 103/124/178 101/145/178 95/125/178
f 105/129/179 93/207/179 96/130/179
f 106/131/81 96/130/81 92/134/81
f 102/136/81 100/140/81 98/137/81
f 101/139/180 99/148/180 100/140/180
f 104/141/181 105/147/181 99/142/181
f 95/127/182 101/139/182 102/136/182
f 97/128/81 102/136/81 103/138/81
f 98/143/183 99/142/183 101/145/183
f 92/146/184 93/208/184 105/147/184
f 100/140/81 106/131/81 104/135/81
f 99/148/185 105/129/185 106/131/185
f 116/149/186 110/209/186 109/150/186
f 121/154/187 120/174/187 108/155/187
f 121/154/81 111/156/81 107/159/81
f 117/161/81 115/165/81 113/162/81
f 117/161/188 116/169/188 114/164/188
f 120/166/189 114/171/189 113/167/189
f 112/153/190 110/152/190 116/169/190
f 112/153/81 117/161/81 118/163/81
f 114/171/191 116/149/191 118/151/191
f 108/172/192 120/166/192 119/168/192
f 115/165/81 121/154/81 119/160/81
f 115/165/193 114/164/193 120/174/193
f 131/175/194 125/178/194 124/176/194
f 134/180/195 135/184/195 126/181/195
f 135/184/5 136/210/5 123/185/5
f 131/186/5 129/199/5 130/187/5
f 132/189/196 133/188/196 130/187/196
f 136/191/197 129/196/197 128/192/197
f 124/194/198 127/179/198 133/188/198
f 125/195/5 131/186/5 133/188/5
f 129/196/199 131/175/199 132/177/199
f 123/197/200 136/191/200 134/193/200
f 129/199/5 136/210/5 135/184/5
f 128/190/201 130/187/201 135/184/201
