# Blender v3.5.0 OBJ File: 'virPlayerWhite.blend'
# www.blender.org
mtllib float_Body.mtl
o Body_Cube
v -1.108227 4.159228 1.108227
v -0.547718 0.513702 0.581766
v -1.108227 4.159228 -1.108227
v -0.547718 0.513702 -0.581766
v 1.108227 4.159228 1.108227
v 0.547718 0.513702 0.581766
v 1.108227 4.159228 -1.108227
v 0.547718 0.513702 -0.581766
vt 0.611317 0.674282
vt 0.458442 0.827157
vt 0.458442 0.674282
vt 0.764192 0.847125
vt 0.649977 0.593075
vt 0.725532 0.593075
vt 0.764375 0.254397
vt 0.647811 0.000000
vt 0.728063 0.000000
vt 0.687055 0.254397
vt 0.611500 0.334649
vt 0.611500 0.254397
vt 0.764192 0.593075
vt 0.647629 0.338678
vt 0.727881 0.338678
vt 0.917067 0.592728
vt 0.802852 0.338678
vt 0.878407 0.338678
vt 0.611317 0.827157
vt 0.611317 0.847125
vt 0.611500 0.254397
vt 0.687055 0.334649
vt 0.611317 0.593075
vt 0.764192 0.592728
vn 0.0000 1.0000 0.0000
vn 0.0000 -0.1429 -0.9897
vn 0.9884 -0.1520 0.0000
vn 0.0000 -1.0000 0.0000
vn -0.9884 -0.1520 0.0000
vn 0.0000 -0.1429 0.9897
usemtl Material
s off
f 5/1/1 3/2/1 1/3/1
f 3/4/2 8/5/2 4/6/2
f 7/7/3 6/8/3 8/9/3
f 2/10/4 8/11/4 6/12/4
f 1/13/5 4/14/5 2/15/5
f 5/16/6 2/17/6 6/18/6
f 5/1/1 7/19/1 3/2/1
f 3/4/2 7/20/2 8/5/2
f 7/7/3 5/21/3 6/8/3
f 2/10/4 4/22/4 8/11/4
f 1/13/5 3/23/5 4/14/5
f 5/16/6 1/24/6 2/17/6
