# Blender v3.5.0 OBJ File: 'virPlayer.blend'
# www.blender.org
mtllib virPlayer.mtl
o Cube
v -1.000000 3.289512 1.000000
v -0.494229 0.000000 0.524952
v -1.000000 3.289512 -1.000000
v -0.494229 0.000000 -0.524952
v 1.000000 3.289512 1.000000
v 0.494229 0.000000 0.524952
v 1.000000 3.289512 -1.000000
v 0.494229 0.000000 -0.524952
vt 0.300875 0.500682
vt 0.000000 0.801557
vt 0.000000 0.500682
vt 0.902626 1.000000
vt 0.677837 0.500000
vt 0.826539 0.500000
vt 0.300875 0.500682
vt 0.071465 0.000000
vt 0.229410 0.000000
vt 0.601750 0.500682
vt 0.453049 0.658626
vt 0.453049 0.500681
vt 0.601750 0.500682
vt 0.372340 0.000000
vt 0.530285 0.000000
vt 0.902626 0.500000
vt 0.677837 0.000000
vt 0.826539 0.000000
vt 0.300875 0.801557
vt 0.601750 1.000000
vt 0.000000 0.500682
vt 0.601750 0.658626
vt 0.300875 0.500682
vt 0.601750 0.500000
vn 0.0000 1.0000 0.0000
vn 0.0000 -0.1429 -0.9897
vn 0.9884 -0.1520 0.0000
vn 0.0000 -1.0000 0.0000
vn -0.9884 -0.1520 0.0000
vn 0.0000 -0.1429 0.9897
usemtl Material
s off
f 5/1/1 3/2/1 1/3/1
f 3/4/2 8/5/2 4/6/2
f 7/7/3 6/8/3 8/9/3
f 2/10/4 8/11/4 6/12/4
f 1/13/5 4/14/5 2/15/5
f 5/16/6 2/17/6 6/18/6
f 5/1/1 7/19/1 3/2/1
f 3/4/2 7/20/2 8/5/2
f 7/7/3 5/21/3 6/8/3
f 2/10/4 4/22/4 8/11/4
f 1/13/5 3/23/5 4/14/5
f 5/16/6 1/24/6 2/17/6
o Cube.001
v -2.061165 0.270750 0.700000
v -1.134359 2.408180 0.367466
v -2.061165 0.270750 -0.700000
v -1.134359 2.408180 -0.367466
v -3.246059 1.016422 0.700000
v -1.132420 3.286251 0.367466
v -3.246059 1.016422 -0.700000
v -1.132420 3.286251 -0.367466
vt 0.750439 0.547585
vt 0.500292 0.797731
vt 0.500292 0.547585
vt 0.687399 0.131986
vt 0.500292 0.547585
vt 0.603446 0.000000
vt 0.500292 0.554172
vt 0.309562 0.000000
vt 0.440877 0.000000
vt 0.190731 0.153654
vt 0.059416 0.000000
vt 0.190731 0.000000
vt 0.250146 0.561332
vt 0.059416 0.153654
vt 1.000000 0.547585
vt 0.812893 0.131986
vt 0.896846 0.000000
vt 0.750439 0.797731
vt 0.750146 0.547585
vt 0.250146 0.554172
vt 0.000000 0.561332
vt 0.750146 0.547585
vn -0.5326 -0.8464 0.0000
vn 0.1558 -0.0003 -0.9878
vn -0.7318 0.6815 0.0000
vn 1.0000 -0.0022 0.0000
vn 0.9175 -0.3978 0.0000
vn 0.1558 -0.0003 0.9878
vn 0.0761 0.1210 -0.9897
vn 0.0761 0.1210 0.9897
usemtl Material.001
s off
f 13/25/7 11/26/7 9/27/7
f 12/28/8 15/29/8 16/30/8
f 15/31/9 14/32/9 16/33/9
f 10/34/10 16/35/10 14/36/10
f 9/37/11 12/38/11 10/34/11
f 13/39/12 10/40/12 14/41/12
f 13/25/7 15/42/7 11/26/7
f 12/28/13 11/43/13 15/29/13
f 15/31/9 13/44/9 14/32/9
f 10/34/10 12/38/10 16/35/10
f 9/37/11 11/45/11 12/38/11
f 13/39/14 9/46/14 10/40/14
o Cube.002
v 3.242913 1.011812 0.700000
v 1.129308 3.294206 0.367466
v 3.242913 1.011812 -0.700000
v 1.129308 3.294206 -0.367466
v 2.055646 0.269925 0.700000
v 1.135665 2.410303 0.367466
v 2.055646 0.269925 -0.700000
v 1.135665 2.410303 -0.367466
vt 0.917067 0.745603
vt 0.764192 0.898478
vt 0.764192 0.745603
vt 0.611317 0.674282
vt 0.496965 0.420293
vt 0.547950 0.338678
vt 0.152875 0.343967
vt 0.036312 0.094610
vt 0.116564 0.094610
vt 0.036312 0.000000
vt 0.458625 0.339681
vt 0.342061 0.000000
vt 0.422313 0.000000
vt 0.420102 0.421296
vt 0.305750 0.675285
vt 0.369117 0.339681
vt 0.917067 0.898478
vt 0.458625 0.674282
vt 0.000000 0.343967
vt 0.116564 0.000000
vt 0.305750 0.339681
vt 0.458442 0.675285
vn 0.5299 -0.8480 0.0000
vn -0.1566 -0.0011 -0.9877
vn -0.9187 -0.3949 0.0000
vn -1.0000 -0.0072 0.0000
vn 0.7337 0.6795 0.0000
vn -0.1566 -0.0011 0.9877
vn -0.0757 0.1212 -0.9897
vn -0.0757 0.1212 0.9897
usemtl Material.002
s off
f 21/47/15 19/48/15 17/49/15
f 19/50/16 24/51/16 20/52/16
f 23/53/17 22/54/17 24/55/17
f 18/56/18 24/55/18 22/54/18
f 17/57/19 20/58/19 18/59/19
f 22/60/20 17/61/20 18/62/20
f 21/47/15 23/63/15 19/48/15
f 19/50/21 23/64/21 24/51/21
f 23/53/17 21/65/17 22/54/17
f 18/56/18 20/66/18 24/55/18
f 17/57/19 19/67/19 20/58/19
f 22/60/22 21/68/22 17/61/22
o 立方体
v 1.000000 3.581183 -1.000000
v 1.000000 5.581183 -1.000000
v 1.000000 3.581183 1.000000
v 1.000000 5.581183 1.000000
v -1.000000 3.581183 -1.000000
v -1.000000 5.581183 -1.000000
v -1.000000 3.581183 1.000000
v -1.000000 5.581183 1.000000
vt 1.000000 0.333333
vt 0.666667 0.000000
vt 1.000000 0.000000
vt 0.333333 0.333333
vt 0.000000 0.000000
vt 0.333333 0.000000
vt 0.333333 0.666667
vt 0.000000 0.333333
vt 0.333333 0.333333
vt 0.666667 0.333333
vt 0.333333 0.000000
vt 0.666667 0.000000
vt 0.666667 0.333333
vt 0.333333 0.666667
vt 0.333333 0.333333
vt 0.333333 0.666667
vt 0.000000 1.000000
vt 0.000000 0.666667
vt 0.666667 0.333333
vt 0.000000 0.333333
vt 0.000000 0.666667
vt 0.333333 0.333333
vt 0.666667 0.666667
vt 0.333333 1.000000
vn 1.0000 0.0000 0.0000
vn 0.0000 0.0000 1.0000
vn -1.0000 0.0000 0.0000
vn 0.0000 0.0000 -1.0000
vn 0.0000 -1.0000 0.0000
vn 0.0000 1.0000 0.0000
usemtl マテリアル
s off
f 26/69/23 27/70/23 25/71/23
f 28/72/24 31/73/24 27/74/24
f 32/75/25 29/76/25 31/77/25
f 30/78/26 25/79/26 29/80/26
f 31/81/27 25/82/27 27/83/27
f 28/84/28 30/85/28 32/86/28
f 26/69/23 28/87/23 27/70/23
f 28/72/24 32/88/24 31/73/24
f 32/75/25 30/89/25 29/76/25
f 30/78/26 26/90/26 25/79/26
f 31/81/27 29/91/27 25/82/27
f 28/84/28 26/92/28 30/85/28
